<svg xmlns="http://www.w3.org/2000/svg" xmlns:xlink="http://www.w3.org/1999/xlink" width="161" height="81" viewBox="0 0 161 81">
  <defs>
    <polygon id="strange-lands-logo-a" points=".001 .957 20.586 .957 20.586 42.281 .001 42.281"/>
    <polygon id="strange-lands-logo-c" points=".861 1.113 28.145 1.113 28.145 30.741 .861 30.741"/>
    <polygon id="strange-lands-logo-e" points=".844 1.113 30.761 1.113 30.761 70.085 .844 70.085"/>
    <polygon id="strange-lands-logo-g" points=".527 1.21 16.593 1.21 16.593 30.838 .527 30.838"/>
  </defs>
  <g fill="none" fill-rule="evenodd" transform="translate(0 -1)">
    <g transform="translate(0 .445)">
      <mask id="strange-lands-logo-b" fill="#fff">
        <use xlink:href="#strange-lands-logo-a"/>
      </mask>
      <path fill="#FEFEFE" d="M19.8233534,12.1078256 C18.6795776,11.1252274 16.2830948,10.6864923 15.357181,10.6864923 C13.2330259,10.6864923 11.5445948,11.5064923 11.5445948,13.857159 C11.5445948,18.6145607 20.5858707,18.7224923 20.5858707,28.9437573 C20.5858707,40.3130222 13.2330259,42.2810222 5.55478448,42.2810222 C3.32309483,42.2810222 1.74219828,41.8997573 0.652887931,41.8997573 L0.380560345,31.0210906 C2.88597414,31.7317573 4.24761207,31.8957573 5.22799138,31.8957573 C7.07981897,31.8957573 8.38699138,30.8570906 8.38699138,28.8890906 C8.38699138,24.2970906 0.000698275862,23.3144923 0.000698275862,13.4212274 C0.000698275862,11.835894 0.435025862,0.95722735 12.3615776,0.95722735 C14.3781983,0.95722735 17.6447328,1.23056068 19.8233534,1.72256068 L19.8233534,12.1078256 Z" mask="url(#strange-lands-logo-b)"/>
    </g>
    <path fill="#FEFEFE" d="M23.7443121 9.9297094L33.2199155 4.46304274 33.2199155 13.4283761 36.7043121 13.4283761 36.7043121 21.6269744 33.2199155 21.6269744 33.2199155 29.3882393C33.2199155 30.754906 33.2199155 32.230906 35.9962603 32.230906 36.8132431 32.230906 37.0869672 32.1215726 37.4137603 32.013641L35.9962603 41.7415043C27.9912259 41.7415043 23.7443121 41.7415043 23.7443121 34.5815726L23.7443121 21.6269744 21.7835534 21.6269744 21.7835534 13.4283761 23.7443121 13.4283761 23.7443121 9.9297094zM39.6451707 13.4271145L49.1221707 13.4271145 49.1221707 16.2697812 49.2311017 16.2697812C50.4293431 14.0831145 52.0088431 13.4271145 55.3298431 13.4271145L55.3298431 22.9377128C50.0466879 22.9377128 49.1221707 24.7963795 49.1221707 28.0217128L49.1221707 41.7416444 39.6451707 41.7416444 39.6451707 13.4271145zM58.2708414 13.8104821C60.8307207 13.6464821 63.443669 13.4292171 66.0049448 13.4292171 73.4653241 13.4292171 77.5502379 14.7944821 77.5502379 22.3370803L77.5502379 41.7423453 69.3804103 41.7423453 69.3804103 39.665012 69.2714793 39.665012C68.9446862 40.2663453 66.9839276 42.3983453 63.1727379 42.3983453 58.4887034 42.3983453 54.4037897 38.845012 54.4037897 32.4504137 54.4037897 27.5850803 57.8351172 22.8304821 64.1531172 22.8304821 65.8401517 22.8304821 67.4196517 23.1570803 68.2924966 23.5944137 68.2924966 20.751747 67.3651862 19.8784821 63.1727379 19.8784821 60.2316 19.8784821 58.8699621 20.2611487 57.1270655 20.5330803L58.2708414 13.8104821zM63.443669 31.8490803C63.443669 33.4344137 64.7522379 34.7464137 66.3303414 34.7464137 67.9098414 34.7464137 69.2170138 33.4344137 69.2170138 31.8490803 69.2170138 30.263747 67.9098414 28.951747 66.3303414 28.951747 64.7522379 28.951747 63.443669 30.263747 63.443669 31.8490803zM111.20476 39.0645197C113.056588 41.2511863 116.268657 42.6164513 119.100864 42.6164513 121.17195 42.6164513 122.75145 41.4151863 122.75145 39.501853L122.75145 38.189853C121.82414 38.4617846 120.734829 38.5164513 119.863381 38.5164513 110.769036 38.5164513 107.119847 31.465853 107.119847 26.000588 107.119847 16.0512547 114.035571 12.7712547 119.155329 12.7712547 121.82414 12.7712547 125.962122 13.2646564 126.888036 13.4272547L132.661381 13.4272547 129.830571 17.6912547C130.646157 18.4019214 132.55245 21.6272547 132.55245 26.000588 132.55245 29.0605197 131.192209 31.793853 129.885036 32.9965197 130.700622 33.925853 132.227053 35.729853 132.227053 39.665853 132.227053 45.1857846 128.249674 51.3617162 118.828536 51.3617162 114.035571 51.3617162 110.060984 49.2311179 106.520726 46.1151179L111.20476 39.0645197zM119.645519 29.2245197C121.442881 29.2245197 123.076847 27.529853 123.076847 25.6711863 123.076847 23.704588 121.442881 22.064588 119.645519 22.064588 117.740622 22.064588 116.161122 23.704588 116.161122 25.6711863 116.161122 27.529853 117.740622 29.2245197 119.645519 29.2245197z"/>
    <g transform="translate(132.672 11.658)">
      <mask id="strange-lands-logo-d" fill="#fff">
        <use xlink:href="#strange-lands-logo-c"/>
      </mask>
      <path fill="#FEFEFE" d="M26.6738586,27.2419419 C24.9309621,28.2792068 20.8474448,30.7406085 14.8562379,30.7406085 C10.2280655,30.7406085 0.861393103,27.7339419 0.861393103,15.9820103 C0.861393103,5.81401026 9.13735862,1.11267692 15.6187552,1.11267692 C24.8764966,1.11267692 27.0551172,7.61801026 28.1458241,11.1166769 L13.9303241,21.2286085 C14.4219103,21.5566085 15.8366172,21.9939419 17.1996517,21.9939419 C20.4117207,21.9939419 24.2229103,19.8619419 26.0202724,17.9486085 L26.6738586,27.2419419 Z M17.7987724,10.2966769 C17.1996517,9.53134359 15.4553586,9.31267692 14.6942379,9.31267692 C12.0798931,9.31267692 9.89987586,11.1713436 9.89987586,14.5606769 C9.89987586,15.0526769 10.0088069,15.5432752 10.1191345,16.0899419 L17.7987724,10.2966769 Z" mask="url(#strange-lands-logo-d)"/>
    </g>
    <polygon fill="#FEFEFE" points=".52 45.137 .52 80.601 21.813 80.601 24.482 70.216 10.758 70.216 10.758 45.137"/>
    <path fill="#FEFEFE" d="M26.8238483 52.6695111C29.3837276 52.5055111 31.9966759 52.2868444 34.5565552 52.2868444 42.018331 52.2868444 46.1032448 53.6521094 46.1032448 61.1961094L46.1032448 80.6013744 37.9334172 80.6013744 37.9334172 78.5226393 37.8244862 78.5226393C37.4990897 79.1253744 35.5369345 81.2573744 31.7257448 81.2573744 27.0417103 81.2573744 22.9567966 77.704041 22.9567966 71.3094427 22.9567966 66.4441094 26.3881241 61.6881094 32.7061241 61.6881094 34.3945552 61.6881094 35.9740552 62.0161094 36.8455034 62.452041 36.8455034 59.6107761 35.9195897 58.7361094 31.7257448 58.7361094 28.7846069 58.7361094 27.422969 59.1201778 25.681469 59.3921094L26.8238483 52.6695111zM31.9966759 70.7081094C31.9966759 72.292041 33.3052448 73.6054427 34.8833483 73.6054427 36.4628483 73.6054427 37.7700207 72.292041 37.7700207 70.7081094 37.7700207 69.1213744 36.4628483 67.8107761 34.8833483 67.8107761 33.3052448 67.8107761 31.9966759 69.1213744 31.9966759 70.7081094zM48.2317293 52.2862838L57.7073328 52.2862838 57.7073328 54.9102838C59.5591603 52.8876171 61.7922466 51.6302838 64.6230569 51.6302838 68.5445741 51.6302838 72.7928845 53.7622838 72.7928845 59.7756171L72.7928845 80.6008137 63.317281 80.6008137 63.317281 65.0782838C63.317281 63.2742838 62.9890914 61.1408821 60.4306086 61.1408821 58.0899879 61.1408821 57.7073328 63.2742838 57.7073328 65.0782838L57.7073328 80.6008137 48.2317293 80.6008137 48.2317293 52.2862838z"/>
    <g transform="translate(74.017 11.658)">
      <mask id="strange-lands-logo-f" fill="#fff">
        <use xlink:href="#strange-lands-logo-e"/>
      </mask>
      <path fill="#FEFEFE" d="M30.7612862,9.25787009 C30.7612862,3.24453675 26.5129759,1.11253675 22.5928552,1.11253675 C19.7606483,1.11253675 17.5275621,2.37127179 15.6757345,4.39253675 L15.6757345,1.76853675 L6.20013103,1.76853675 L6.20013103,30.0830667 L15.6757345,30.0830667 L15.6757345,14.5605368 C15.6757345,12.7565368 16.0583897,10.6245368 18.3990103,10.6245368 C20.9574931,10.6245368 21.2856828,12.7565368 21.2856828,14.5605368 L21.1585966,42.7531179 C20.3960793,41.9891863 18.2174586,40.4585197 14.6772,40.4585197 C6.45430345,40.4585197 0.844355172,46.4171863 0.844355172,56.2011179 C0.844355172,64.2371179 6.7797,70.0864513 13.6968207,70.0864513 C17.7817345,70.0864513 20.0692862,68.0077162 21.0496655,66.4770496 L21.1585966,66.4770496 L21.1585966,69.4290496 L30.6342,69.4290496 L30.7612862,9.25787009 Z M15.6575793,60.5730496 C12.6619759,60.5730496 10.3199586,58.2237846 10.3199586,55.2717846 C10.3199586,52.3211863 12.6619759,49.9691179 15.6575793,49.9691179 C18.5987172,49.9691179 20.9407345,52.3211863 20.9407345,55.2717846 C20.9407345,58.2237846 18.5987172,60.5730496 15.6575793,60.5730496 Z" mask="url(#strange-lands-logo-f)"/>
    </g>
    <g transform="translate(106.138 50.906)">
      <mask id="strange-lands-logo-h" fill="#fff">
        <use xlink:href="#strange-lands-logo-g"/>
      </mask>
      <path fill="#FEFEFE" d="M1.01766724,21.3804137 C1.45339138,21.5990803 2.54409828,22.0924821 3.84987414,22.0924821 C5.04951207,22.0924821 6.35528793,21.653747 6.35528793,20.3431487 C6.35528793,17.9924821 0.527477586,16.3524821 0.527477586,9.79248205 C0.527477586,3.66981538 4.61239138,1.20981538 10.2768052,1.20981538 C12.8352879,1.20981538 14.741581,1.31914872 15.7764259,1.42988376 L15.7764259,10.3938154 C14.9594431,9.84714872 13.8156672,9.40981538 12.5643569,9.40981538 C11.47365,9.40981538 10.4388052,10.1204821 10.4388052,11.3231487 C10.4388052,13.4018838 16.5934086,15.8604821 16.5934086,22.309747 C16.5934086,27.721747 13.3254776,30.837747 6.19189138,30.837747 C5.37490862,30.837747 4.01466724,30.837747 1.01766724,30.181747 L1.01766724,21.3804137 Z" mask="url(#strange-lands-logo-h)"/>
    </g>
  </g>
</svg>
