<svg xmlns="http://www.w3.org/2000/svg" xmlns:xlink="http://www.w3.org/1999/xlink" width="1024" height="1024" viewBox="0 0 1024 1024">
  <defs>
    <rect id="age-gradient-a" width="1024" height="1024" x="415" y="330"/>
    <path id="age-gradient-b" d="M0,1214.51427 C0.104207795,1176.59402 4.30262109,1138.20383 12.6884327,1100.25461 C68.6592002,846.93324 337.329782,761.140173 497.78431,679.07132 C658.232027,597.009274 756.647407,454.985358 788.835025,363.459591 C838.621629,221.919073 893.318786,81.2228014 1072.43478,20.1783894 C1251.54396,-40.8592141 1499.74142,25.5979022 1583.64308,371.861197 C1639.61385,602.864527 1953.60999,725.069094 1893.35526,925.264264 C1811.26525,1198.03052 1522.77538,1289.71969 1321.27245,1190.09189 C1020.76841,1041.51145 820.08957,1114.62722 719.338102,1302.06338 C618.586634,1489.49955 666.275526,1669.9026 376.798095,1648.22455 C131.790277,1629.87669 0.588642718,1431.51332 1.13265634e-08,1217.4094 L1.13265639e-08,1214.51427"/>
    <radialGradient id="age-gradient-c" cx="3.876%" cy="82.793%" r="125.054%" fx="3.876%" fy="82.793%" gradientTransform="matrix(.85023 -.2011 .17455 .97957 -.139 .025)">
      <stop offset="0%" stop-color="#3023AE"/>
      <stop offset="54.964%" stop-color="#E52ADF"/>
      <stop offset="100%" stop-color="#F59223"/>
    </radialGradient>
  </defs>
  <g fill="none" fill-rule="evenodd" transform="translate(-415 -330)">
    <mask id="age-gradient-d" fill="#fff">
      <use xlink:href="#age-gradient-b"/>
    </mask>
    <path fill="url(#age-gradient-c)" d="M788.836189,363.459591 C838.622741,221.919073 893.31984,81.2228014 1072.43564,20.1783894 C1251.54464,-40.8592141 1499.74184,25.5979022 1583.64341,371.861197 C1639.61412,602.864527 1953.60994,725.069094 1893.35527,925.264264 C1811.26535,1198.03052 1522.77578,1289.71969 1321.27305,1190.09189 C1020.76933,1041.51145 820.090702,1114.62722 719.339339,1302.06338 C618.587976,1489.49955 666.276819,1669.9026 376.79969,1648.22455 C87.3225613,1626.5465 -43.2871108,1353.57599 12.6904089,1100.25461 C68.6611178,846.93324 337.331418,761.140173 497.785778,679.07132 C658.233328,597.009274 756.648604,454.985358 788.836189,363.459591 L1502.82031,719.881744" mask="url(#age-gradient-d)"/>
  </g>
</svg>
