<svg xmlns="http://www.w3.org/2000/svg" xmlns:xlink="http://www.w3.org/1999/xlink" width="1024" height="3917" viewBox="0 0 1024 3917">
  <defs>
    <path id="bacckground-strains-a" d="M0,722.083939 C0.0618339782,699.538624 2.55305449,676.713914 7.52895955,654.151379 C40.7404408,503.540308 200.162017,452.53243 295.371226,403.738766 C390.576395,354.94915 448.973317,270.509477 468.072545,216.093248 C497.614517,131.940976 530.070274,48.2906474 636.352671,11.9969697 C742.631028,-24.29266 889.904427,15.2191164 939.689319,221.088385 C972.9008,358.430364 1159.21729,431.086534 1123.46383,550.111662 C1074.75392,712.283602 903.572136,766.796981 784.005954,707.563723 C605.695298,619.2259 486.618114,662.696545 426.835023,774.135865 C367.051932,885.575186 395.349181,992.833001 223.581405,979.944415 C78.2006482,969.035776 0.349284053,851.099736 6.72086458e-09,723.805227 L6.72086484e-09,722.083937"/>
    <radialGradient id="bacckground-strains-b" cx="3.876%" cy="82.793%" r="124.818%" fx="3.876%" fy="82.793%" gradientTransform="scale(.86968 1) rotate(-11.624 .042 .8)">
      <stop offset="0%" stop-color="#3023AE"/>
      <stop offset="54.964%" stop-color="#E52ADF"/>
      <stop offset="100%" stop-color="#F59223"/>
    </radialGradient>
    <path id="bacckground-strains-d" d="M0,210.710893 C0.00676984064,206.730277 0.149636401,202.747743 0.305958813,198.824103 C1.04577725,180.25517 1.8282293,161.447497 7.22263426,143.667662 C11.7593514,128.720036 19.990145,114.370515 32.1156439,104.790765 C34.4128428,102.976342 36.8504819,101.332807 39.4285611,99.8903158 C53.1816605,92.1878148 69.4275719,90.8332804 84.8082718,87.3979399 C89.2346432,86.4103109 93.9042769,85.0708547 96.8836135,81.6430533 C105.540743,71.6863457 93.0541126,57.1709638 92.5425094,43.9749335 C91.8453245,25.9437934 113.049273,15.9443639 130.757267,12.6648325 C214.457065,-2.83566539 301.981348,23.0311674 385.28992,5.55289848 C404.961567,1.42395587 427.236372,-4.61741847 443.733069,6.8823024 C459.133832,17.6230819 462.238561,39.6348946 458.298715,58.020375 C456.931931,64.4010112 454.888026,70.8168301 455.565148,77.3055275 C456.99212,91.0318114 469.681887,100.430622 476.377871,112.48824 C483.986716,126.181854 483.685773,143.185157 491.169224,156.949136 C496.009392,165.855389 503.768708,172.768792 509.71735,180.973903 C515.665992,189.176501 519.829038,199.980107 516.06725,209.393995 C512.756875,217.674498 504.182505,222.760913 500.139836,230.709693 C493.797461,243.174425 500.257706,258.066765 506.655254,270.503854 C508.353075,273.811029 510.143686,277.226265 513.070358,279.513141 C516.533711,282.217184 521.135633,282.976125 525.526894,282.973612 C548.38603,282.961047 567.142308,265.538065 582.457804,248.53225 C609.790961,218.182134 634.851997,185.110385 667.772663,160.964992 C684.427356,148.746538 706.885234,138.88784 725.079752,148.658581 C736.054144,154.551686 743.467375,166.792757 755.567795,169.735539 C769.300832,173.072871 787.289705,162.022986 799.550629,170.926725 C804.318069,174.389709 807.728757,179.993813 812.679271,183.738259 C818.828542,188.392429 824.689408,193.132043 828.965308,199.673514 C875.817132,271.330648 884.138209,368.88477 845.682697,446.409877 C807.229693,523.932471 740.352614,501.237108 674.553914,444.628124 C608.752707,388.016626 589.881067,293.493243 457.802159,352.13026 C325.720742,410.767276 305.657869,452.652295 164.956941,380.620718 C144.239517,370.015643 124.422414,357.231753 107.381512,341.288958 C101.788986,336.059299 91.2986112,328.017536 88.7255478,320.606549 C87.3136231,316.535407 89.2296275,311.285644 87.4139375,306.616395 C85.2822572,301.14297 81.066546,296.322939 76.6201118,292.60111 C54.8167846,274.343796 21.1512838,269.852974 7.07968629,245.117014 C1.30096944,234.957307 0.0204513365,223.14851 3.43684925e-16,211.296274 L3.52385809e-16,210.710893"/>
    <radialGradient id="bacckground-strains-e" cx="3.876%" cy="82.793%" r="188.186%" fx="3.876%" fy="82.793%" gradientTransform="matrix(.565 -.13364 .07619 .99103 -.046 .013)">
      <stop offset="0%" stop-color="#3023AE"/>
      <stop offset="54.964%" stop-color="#E52ADF"/>
      <stop offset="100%" stop-color="#F59223"/>
    </radialGradient>
    <path id="bacckground-strains-g" d="M232.760321,575.181775 C224.158551,575.149835 215.624125,574.327995 207.277915,572.158499 C157.050444,559.096593 130.766315,503.555042 86.9033358,475.708916 C70.208783,465.116685 51.0326903,458.627251 35.3295297,446.601809 C12.9191734,429.440181 -0.62067191,401.163475 0.0218970174,372.849864 C0.835817659,337.096471 20.9390455,311.387859 49.0896843,291.682741 C62.9324549,281.997801 78.3632887,274.514962 91.9796303,264.556296 C105.296106,254.815995 111.871728,237.057708 125.396274,225.302915 C134.600309,217.300306 143.807404,209.294622 153.014499,201.295088 C160.156194,195.088607 167.952697,185.332928 162.955958,177.284186 C160.110296,172.7016 153.531614,170.01356 153.61423,164.612876 C153.663187,161.718773 155.783665,159.292156 158.038776,157.492953 C172.407841,146.008809 194.460195,149.502646 209.288238,138.624388 C211.243483,137.188101 213.106933,135.413503 213.850477,133.097605 C216.537027,124.750534 204.257841,119.626649 201.048056,111.470263 C198.982656,106.229507 201.115373,100.07531 204.872871,95.8925476 C208.633429,91.7128606 213.764801,89.0924829 218.776839,86.564372 C244.562212,73.5485992 268.713624,61.5662147 291.644155,44.2600347 C312.145164,28.7868888 334.895164,16.1586366 359.58205,8.90338893 C485.130839,-28.0033394 540.208176,58.11236 568.765775,156.530302 C577.391498,186.261748 577.978989,217.669373 575.035412,248.301958 C573.759453,261.569927 573.481007,278.580853 568.710697,291.086083 C564.610496,301.850545 556.679359,308.570645 554.58948,320.943626 C548.273946,358.327066 568.358814,394.304975 581.409083,429.889212 C594.459352,465.467298 597.834369,512.003607 567.866178,535.045708 C547.022466,551.072455 518.20478,549.165607 491.957369,548.96262 C454.403805,548.673518 417.009353,553.409881 379.749535,558.140093 C342.866078,562.821097 305.982622,567.505176 269.099165,572.183103 C257.426149,573.666298 245.562054,575.138603 233.814227,575.181775"/>
    <radialGradient id="bacckground-strains-h" cx="3.876%" cy="82.793%" r="112.14%" fx="3.876%" fy="82.793%" gradientTransform="scale(.97293 1) rotate(-12.959 .04 .823)">
      <stop offset="0%" stop-color="#3023AE"/>
      <stop offset="54.964%" stop-color="#E52ADF"/>
      <stop offset="100%" stop-color="#F59223"/>
    </radialGradient>
    <path id="bacckground-strains-j" d="M0,281.914525 C0.0241744543,273.112429 0.998135665,264.201253 2.9435028,255.392435 C15.9277787,196.59117 78.254831,176.67678 115.477581,157.626858 C152.69875,138.578516 175.529462,105.611753 182.996447,84.3666808 C194.546101,51.5121243 207.234921,18.8535351 248.786816,4.68383221 C290.337131,-9.48429031 347.914763,5.9418161 367.378537,86.3168719 C380.362813,139.937645 453.204632,168.303917 439.226549,214.773462 C420.18305,278.088297 353.258255,299.371298 306.512966,276.245572 C236.801087,241.756901 190.246976,258.72862 166.874331,302.23653 C143.501686,345.74444 154.564707,387.619816 87.4108153,382.58788 C30.5731258,378.328952 0.136555202,332.284606 2.62757206e-09,282.586546 L2.62757216e-09,281.914524"/>
    <radialGradient id="bacckground-strains-k" cx="3.876%" cy="82.793%" r="124.983%" fx="3.876%" fy="82.793%" gradientTransform="scale(.86848 1) rotate(-11.608 .042 .8)">
      <stop offset="0%" stop-color="#3023AE"/>
      <stop offset="54.964%" stop-color="#E52ADF"/>
      <stop offset="100%" stop-color="#F59223"/>
    </radialGradient>
    <path id="bacckground-strains-m" d="M323.986519,3.48537116 C317.699203,5.59985467 311.434666,9.08589506 308.262533,14.9264414 C305.779499,19.5211569 305.528917,24.9616659 305.323896,30.1850116 C303.581216,76.320756 311.810539,107.203645 284.109899,147.287395 C261.893575,179.433259 235.81602,182.907869 198.724271,192.937379 C188.712403,195.640489 178.64928,198.932226 170.209241,204.978505 C161.769202,211.019071 155.066148,220.25422 154.280234,230.626619 C151.671909,264.7841 198.337008,298.112932 218.446169,319.297771 C227.808804,329.161551 234.96746,342.694245 232.307879,356.06121 C229.78498,368.7824 218.799261,378.406157 206.782742,383.195177 C194.771918,387.984196 181.639172,388.841419 168.791178,390.287269 C130.315536,394.601958 92.4777371,404.614323 56.8837816,419.901468 C30.5385595,431.216812 2.16590563,450.275737 0.656721912,478.992709 C-0.601880355,502.754932 17.5026292,522.973967 36.4044433,537.341025 C63.5697502,557.977241 91.1906597,558.274412 122.849347,564.755018 C160.020827,572.355729 198.963462,575.578887 236.69875,570.749864 C296.337134,563.103435 356.032469,530.700404 381.41523,476.003858 C392.167453,452.864551 391.763105,426.1992 399.491265,401.591183 C408.443857,373.079945 419.093568,344.91731 434.857419,319.412067 C442.648224,306.810889 451.737497,294.67261 455.934736,280.454137 C469.904651,233.101136 449.300022,174.689958 435.677504,129.640029 C423.535694,89.4705575 417.385058,47.9866769 385.003101,17.069499 C373.755411,6.33135167 358.196581,0.473660857 342.700397,0.473660857 C336.350435,0.473660857 330.011864,1.45660995 323.986519,3.48537116"/>
    <radialGradient id="bacckground-strains-o" cx="3.876%" cy="82.793%" r="121.481%" fx="3.876%" fy="82.793%" gradientTransform="scale(.89462 1) rotate(-11.948 .041 .806)">
      <stop offset="0%" stop-color="#3023AE"/>
      <stop offset="54.964%" stop-color="#E52ADF"/>
      <stop offset="100%" stop-color="#F59223"/>
    </radialGradient>
    <path id="bacckground-strains-n" d="M324.429586,3.42655466 C318.14292,5.54103817 311.879031,9.02707856 308.707226,14.8676249 C306.224448,19.4623404 305.973893,24.9028494 305.768893,30.1261951 C304.026393,76.2619395 312.254865,107.144828 284.557088,147.228578 C262.343062,179.374442 236.268202,182.849053 199.180287,192.878563 C189.169454,195.581673 179.107371,198.873409 170.668205,204.919689 C162.229038,210.960254 155.526678,220.195404 154.740844,230.567803 C152.132789,264.725283 198.793065,298.054116 218.900147,319.238954 C228.261813,329.102734 235.41973,342.635429 232.760424,356.002393 C230.237785,368.723583 219.253202,378.347341 207.237925,383.13636 C195.228342,387.92538 182.096954,388.782603 169.250288,390.228452 C130.778623,394.543142 92.9447362,404.555507 57.3544601,419.842651 C31.0119613,431.157995 2.64224042,450.216921 1.13321271,478.933893 C-0.125259451,502.696116 17.9773786,522.91515 36.8772388,537.282208 C64.0397375,557.918424 91.6577918,558.215595 123.313207,564.696201 C160.480844,572.296912 199.419453,575.520071 237.150841,570.691048 C296.78306,563.044618 356.472224,530.641587 381.852362,475.945042 C392.603472,452.805735 448.810954,462.086357 456.538315,437.47834 C465.489981,408.967102 484.403342,415.882729 500.165563,390.377486 L535.317581,351.66792 C543.107581,339.066741 606.343142,300.028313 610.539947,285.809841 L610.125884,286.947854 C624.094355,239.594853 650.944696,257.247523 637.323585,212.197594 L519.155705,107.818824 C507.01515,67.6493519 417.818471,47.9278604 385.439861,17.0106825 C374.193334,6.27253517 358.636113,0.414844358 343.14153,0.414844358 C336.792225,0.414844358 442.544074,29.5119994 436.519352,31.5407607"/>
    <polygon id="bacckground-strains-p" points=".001 .095 190.869 .095 190.869 281.275 .001 281.275"/>
  </defs>
  <g fill="none" fill-rule="evenodd" transform="translate(-205 -15)">
    <g transform="translate(601)">
      <mask id="bacckground-strains-c" fill="#fff">
        <use xlink:href="#bacckground-strains-a"/>
      </mask>
      <path fill="url(#bacckground-strains-b)" d="M468.073236,216.093248 C497.615177,131.940976 530.0709,48.2906474 636.353186,11.9969697 C742.631431,-24.29266 889.904677,15.2191164 939.689516,221.088385 C972.900962,358.430364 1159.21726,431.086534 1123.46383,550.111662 C1074.75398,712.283602 903.572371,766.796981 784.006314,707.563723 C605.695844,619.2259 486.618786,662.696545 426.835757,774.135865 C367.052729,885.575186 395.349948,992.833001 223.582352,979.944415 C51.814755,967.055828 -25.6853556,804.762451 7.53013215,654.151379 C40.7415786,503.540308 200.162988,452.53243 295.372098,403.738766 C390.577167,354.94915 448.974027,270.509477 468.073236,216.093248" mask="url(#bacckground-strains-c)"/>
    </g>
    <g transform="translate(583 2164)">
      <mask id="bacckground-strains-f" fill="#fff">
        <use xlink:href="#bacckground-strains-d"/>
      </mask>
      <path fill="url(#bacckground-strains-e)" d="M32.1158853,104.790765 C19.99039,114.370515 11.7595987,128.720036 7.22288289,143.667662 C1.82847948,161.447497 1.04602766,180.25517 0.306209432,198.824103 C-0.323263026,214.623654 -0.734551803,231.378164 7.07993496,245.117014 C21.1515284,269.852974 54.8170195,274.343796 76.6203404,292.60111 C81.0667734,296.322939 85.2824833,301.14297 87.414163,306.616395 C89.2298524,311.285644 87.3138486,316.535407 88.7257729,320.606549 C91.2988356,328.017536 101.789207,336.059299 107.381732,341.288958 C124.422629,357.231753 144.239726,370.015643 164.957145,380.620718 C305.658032,452.652295 325.720899,410.767276 457.802277,352.13026 C589.881148,293.493243 608.752782,388.016626 674.553971,444.628124 C740.352651,501.237108 807.229711,523.932471 845.682704,446.409877 C884.138205,368.88477 875.817131,271.330648 828.96532,199.673514 C824.689421,193.132043 818.828556,188.392429 812.679288,183.738259 C807.728775,179.993813 804.318088,174.389709 799.550649,170.926725 C787.289729,162.022986 769.300861,173.072871 755.567828,169.735539 C743.467412,166.792757 736.054182,154.551686 725.079794,148.658581 C706.885281,138.88784 684.427409,148.746538 667.772722,160.964992 C634.852064,185.110385 609.791035,218.182134 582.457887,248.53225 C567.142396,265.538065 548.386123,282.961047 525.526993,282.973612 C521.135733,282.976125 516.533813,282.217184 513.070461,279.513141 C510.14379,277.226265 508.353179,273.811029 506.655359,270.503854 C500.257812,258.066765 493.797569,243.174425 500.139943,230.709693 C504.182611,222.760913 512.756978,217.674498 516.067352,209.393995 C519.829139,199.980107 515.666094,189.176501 509.717454,180.973903 C503.768814,172.768792 496.0095,165.855389 491.169333,156.949136 C483.685884,143.185157 483.986827,126.181854 476.377985,112.48824 C469.682003,100.430622 456.992239,91.0318114 455.565268,77.3055275 C454.888146,70.8168301 456.932051,64.4010112 458.298833,58.020375 C462.238679,39.6348946 459.13395,17.6230819 443.733192,6.8823024 C427.236499,-4.61741847 404.961701,1.42395587 385.29006,5.55289848 C301.981512,23.0311674 214.457254,-2.83566539 130.75748,12.6648325 C113.049491,15.9443639 91.8455488,25.9437934 92.5427334,43.9749335 C93.0543365,57.1709638 105.540963,71.6863457 96.8838363,81.6430533 C93.9045005,85.0708547 89.2348682,86.4103109 84.8084981,87.3979399 C69.4278026,90.8332804 53.1818959,92.1878148 39.4288004,99.8903158 C36.850722,101.332807 34.4130836,102.976342 32.1158853,104.790765" mask="url(#bacckground-strains-f)"/>
    </g>
    <g transform="translate(730 3356.818)">
      <mask id="bacckground-strains-i" fill="#fff">
        <use xlink:href="#bacckground-strains-g"/>
      </mask>
      <path fill="url(#bacckground-strains-h)" d="M568.765775,156.530038 C577.391498,186.261433 577.978989,217.669005 575.035412,248.301538 C573.759453,261.569484 573.481007,278.580382 568.710697,291.08559 C564.610496,301.850034 556.679359,308.570123 554.58948,320.943083 C548.273946,358.32646 568.358814,394.304308 581.409083,429.888485 C594.459352,465.466511 597.834369,512.002741 567.866178,535.044803 C547.022466,551.071522 518.20478,549.164678 491.957369,548.961691 C454.403805,548.672589 417.009353,553.408945 379.749535,558.139149 C342.866078,562.820144 305.982622,567.504215 269.099165,572.182135 C248.52472,574.796357 227.356664,577.376748 207.277915,572.157531 C157.050444,559.095647 130.766315,503.55419 86.9033358,475.708111 C70.208783,465.115898 51.0326903,458.626475 35.3295297,446.601054 C12.9191734,429.439454 -0.62067191,401.162797 0.0218970174,372.849233 C0.835817659,337.0959 20.9390455,311.387332 49.0896843,291.682248 C62.9324549,281.997324 78.3632887,274.514497 91.9796303,264.555849 C105.296106,254.815564 111.871728,237.057307 125.396274,225.302534 C134.600309,217.299939 143.807404,209.294268 153.014499,201.294748 C160.156194,195.088277 167.952697,185.332615 162.955958,177.283886 C160.110296,172.701308 153.531614,170.013273 153.61423,164.612597 C153.663187,161.7185 155.783665,159.291886 158.038776,157.492686 C172.407841,146.008562 194.460195,149.502393 209.288238,138.624154 C211.243483,137.187869 213.106933,135.413274 213.850477,133.09738 C216.537027,124.750323 204.257841,119.626447 201.048056,111.470074 C198.982656,106.229328 201.115373,100.075141 204.872871,95.8923856 C208.633429,91.7127057 213.764801,89.0923324 218.776839,86.5642258 C244.562212,73.548475 268.713624,61.5661108 291.644155,44.2599601 C312.145164,28.7868404 334.895164,16.1586096 359.58205,8.90337417 C485.130839,-28.0032917 540.208176,58.112262 568.765775,156.530038" mask="url(#bacckground-strains-i)"/>
    </g>
    <g transform="translate(20 2617.7)">
      <mask id="bacckground-strains-l" fill="#fff">
        <use xlink:href="#bacckground-strains-j"/>
      </mask>
      <path fill="url(#bacckground-strains-k)" d="M182.996717,84.3666808 C194.546359,51.5121243 207.235165,18.8535351 248.787017,4.68383221 C290.337288,-9.48429031 347.91486,5.9418161 367.378614,86.3168719 C380.362876,139.937645 453.204619,168.303917 439.226551,214.773462 C420.183071,278.088297 353.258347,299.371298 306.513107,276.245572 C236.801301,241.756901 190.247238,258.72862 166.874618,302.23653 C143.501998,345.74444 154.565006,387.619816 87.4111853,382.58788 C20.2573643,377.555945 -10.041881,314.193699 2.94396124,255.392435 C15.9282235,196.59117 78.2552106,176.67678 115.477921,157.626858 C152.699052,138.578516 175.529739,105.611753 182.996717,84.3666808" mask="url(#bacckground-strains-l)"/>
    </g>
    <g transform="translate(0 994)">
      <g transform="rotate(-110 434.67 452.982)">
        <use fill="url(#bacckground-strains-o)" xlink:href="#bacckground-strains-n"/>
      </g>
      <g opacity=".921" transform="translate(283)">
        <mask id="bacckground-strains-q" fill="#fff">
          <use xlink:href="#bacckground-strains-p"/>
        </mask>
        <path fill="#2656A6" d="M137.715812,246.334562 C135.195257,252.171482 134.527766,259.354044 130.332663,264.144997 C123.49088,271.959779 111.266481,277.435153 101.492783,280.145773 C97.2472298,281.323211 92.4816545,282.030833 88.6086544,279.935033 C83.8372579,277.353951 81.9104598,271.348826 77.4320608,268.294062 C72.8158949,265.148429 66.5562263,265.852184 61.2977943,267.744978 C56.0413027,269.641638 51.1399007,272.595866 45.6641461,273.719168 C40.1845106,274.842471 33.6202023,273.558696 30.7503791,268.775477 C23.1208017,256.055672 41.7775633,249.677402 45.7999727,240.868855 C52.2129313,226.824674 35.1239974,227.093416 26.7512542,223.501168 C11.3019421,216.871557 13.5256185,194.301105 22.7366063,183.568829 C25.7422562,180.067451 29.7452618,176.854149 30.337078,172.283603 C31.2490569,165.240246 23.6893333,160.074214 21.6053643,153.282198 C19.9929078,148.02723 21.9100041,142.205778 25.2591014,137.840173 C28.610139,133.474567 33.2360069,130.290265 37.7823192,127.181366 C44.3776736,122.670756 50.9769087,118.158212 57.5722631,113.647602 C63.3934056,109.666742 69.9809985,102.866992 66.5193591,96.7361963 C65.0349678,94.1125794 62.0991716,92.7128015 59.3418905,91.4734953 C54.0077836,89.078019 48.6736767,86.6825427 43.3415102,84.285133 C33.6105004,79.9117937 23.7456043,75.4572517 15.5300319,68.663302 C7.31639992,61.8674188 0.814183792,52.3203146 0.0690775572,41.7098432 C-0.229741089,37.4737749 0.42998839,33.0888352 2.53142082,29.3941175 C5.96201411,23.3619253 12.7552874,19.9320827 19.5485606,18.4317683 C26.3398935,16.9295204 33.3776547,17.0145898 40.2776489,16.1329617 C52.1935275,14.6094465 63.7193896,10.1452376 73.5377165,3.24688448 C76.0446886,1.48362831 78.9533194,-0.540636184 81.906579,0.284923451 C85.4865816,1.29028881 86.6488697,6.20497873 84.984023,9.52075103 C83.3211166,12.8365233 79.8497753,14.8105196 76.4754531,16.3746361 C68.0153927,20.295561 58.8315703,22.9211113 51.2815485,28.3848854 C43.7295864,33.8486594 37.9938207,43.3261614 40.5240773,52.2758465 C42.9747782,60.9374558 51.9994894,65.9294815 60.5604496,68.8025064 C69.4338111,71.7799346 78.7224141,73.51999 88.0731093,73.9550039 C97.1793164,74.3784174 107.915444,74.3049484 113.24955,81.671183 C117.817207,87.9817841 111.441115,97.2504794 117.735711,102.329508 C119.811918,104.005761 122.67204,104.268703 125.345884,104.334438 C136.305155,104.601247 148.296709,103.000396 157.327241,109.194993 C165.098466,114.527296 180.45658,117.466057 185.831435,124.731755 C194.396276,136.314724 182.965493,152.516573 174.736338,160.342956 C165.961936,168.689422 155.402383,177.122891 153.937396,189.12154 C153.223336,194.97586 170.438394,200.580771 175.312631,203.89461 C181.362738,208.008875 187.300304,212.9951 189.844143,219.839318 C192.267679,226.349059 190.205054,235.37608 185.643218,240.681316 C180.45464,246.719308 170.82453,243.670344 164.537696,241.056394 C157.719198,238.218171 149.581241,235.17694 143.375903,239.173268 C140.624443,240.944257 138.947954,243.477005 137.715812,246.334562" mask="url(#bacckground-strains-q)"/>
      </g>
    </g>
  </g>
</svg>
