<svg xmlns="http://www.w3.org/2000/svg" xmlns:xlink="http://www.w3.org/1999/xlink" width="1007" height="916" viewBox="0 0 1007 916">
  <defs>
    <path id="home-bg-a" d="M0,281.914525 C0.0241744543,273.112429 0.998135665,264.201253 2.9435028,255.392435 C15.9277787,196.59117 78.254831,176.67678 115.477581,157.626858 C152.69875,138.578516 175.529462,105.611753 182.996447,84.3666808 C194.546101,51.5121243 207.234921,18.8535351 248.786816,4.68383221 C290.337131,-9.48429031 347.914763,5.9418161 367.378537,86.3168719 C380.362813,139.937645 453.204632,168.303917 439.226549,214.773462 C420.18305,278.088297 353.258255,299.371298 306.512966,276.245572 C236.801087,241.756901 190.246976,258.72862 166.874331,302.23653 C143.501686,345.74444 154.564707,387.619816 87.4108153,382.58788 C30.5731258,378.328952 0.136555202,332.284606 2.62757206e-09,282.586546 L2.62757216e-09,281.914524"/>
    <radialGradient id="home-bg-b" cx="3.876%" cy="82.793%" r="124.983%" fx="3.876%" fy="82.793%" gradientTransform="scale(.86848 1) rotate(-11.608 .042 .8)">
      <stop offset="0%" stop-color="#3023AE"/>
      <stop offset="54.964%" stop-color="#E52ADF"/>
      <stop offset="100%" stop-color="#F59223"/>
    </radialGradient>
    <path id="home-bg-d" d="M118.357855,290.74359 C113.991222,290.727443 109.658776,290.311981 105.421876,289.215242 C79.9242248,282.612098 66.5812565,254.534352 44.3144986,240.457387 C35.8396167,235.10273 26.1049971,231.822147 18.133389,225.742963 C6.75691643,217.067298 -0.116498559,202.772664 0.209697406,188.459373 C0.622878963,170.385072 10.8281527,157.388678 25.1186427,147.427212 C32.1458357,142.531214 39.9791988,138.748438 46.8914467,133.714065 C53.6514697,128.790082 56.9895418,119.81279 63.8551902,113.870427 C68.5275591,109.824893 73.2014813,105.777804 77.8754035,101.733825 C81.5008386,98.5962821 85.458683,93.6645245 82.922121,89.595669 C81.4775389,87.279049 78.1379135,85.9201725 78.179853,83.1899814 C78.2047061,81.7269347 79.2811527,80.5002145 80.4259452,79.590669 C87.7203084,73.7851259 98.9150432,75.5513543 106.442403,70.0521026 C107.434971,69.326021 108.380939,68.4289138 108.758395,67.2581655 C110.122205,63.0384965 103.888755,60.4482354 102.259329,56.3249627 C101.210841,53.67562 102.293501,50.5645082 104.200971,48.4500093 C106.109994,46.3370653 108.714902,45.0123939 111.259231,43.734366 C124.349009,37.1545431 136.609317,31.0971259 148.249853,22.3483869 C158.657058,14.526296 170.205948,8.14237529 182.738086,4.47465268 C246.472118,-14.18269 274.431772,29.3511096 288.928853,79.1040233 C293.307646,94.1340676 293.605882,110.011466 292.111594,125.497061 C291.463862,132.204375 291.32251,140.803855 288.900893,147.125585 C286.819452,152.56731 282.793262,155.964501 281.732349,162.219375 C278.526308,181.117709 288.722262,199.305508 295.347147,217.294296 C301.972032,235.279974 303.685337,258.805329 288.472179,270.45373 C277.891003,278.555681 263.26189,277.591718 249.937562,277.489103 C230.873738,277.342953 211.890686,279.737312 192.97598,282.128562 C174.252331,284.494935 155.528683,286.862862 136.805035,289.227681 C130.879303,289.977475 124.856572,290.721765 118.892863,290.74359"/>
    <radialGradient id="home-bg-e" cx="3.876%" cy="82.793%" r="112.586%" fx="3.876%" fy="82.793%" gradientTransform="scale(.96887 1) rotate(-12.907 .04 .822)">
      <stop offset="0%" stop-color="#3023AE"/>
      <stop offset="54.964%" stop-color="#E52ADF"/>
      <stop offset="100%" stop-color="#F59223"/>
    </radialGradient>
    <path id="home-bg-g" d="M-1.40512602e-16,130.394372 C0.00419309402,127.931638 0.0926815758,125.467717 0.189504323,123.040233 C0.647731988,111.551974 1.13236599,99.9160117 4.47354467,88.9159534 C7.28348991,79.6681305 12.3814669,70.790345 19.8917406,64.8635291 C21.3145764,63.740979 22.8243977,62.7241538 24.4212046,61.831711 C32.9395793,57.0663147 43.0019481,56.228289 52.5284236,54.1029068 C55.2700231,53.4918788 58.1622939,52.6631818 60.0076311,50.5424639 C65.3696715,44.3824312 57.6357205,35.4020303 57.3188444,27.2378881 C56.8870231,16.082352 70.0202939,9.89588811 80.988245,7.8669021 C132.830104,-1.72297203 187.040767,14.2803636 238.640308,3.46687879 C250.824504,0.912377622 264.62104,-2.82531002 274.838741,4.28935664 C284.377643,10.9344802 286.300646,24.5527855 283.860389,35.9275455 C283.013833,39.8751282 281.747882,43.8444779 282.167277,47.8589161 C283.051112,56.3511166 290.910882,62.1659883 295.058231,69.6258159 C299.770986,78.0978042 299.584588,88.6174359 304.219677,97.132958 C307.217573,102.643093 312.023527,106.920289 315.707988,111.996641 C319.39245,117.071438 321.970951,123.755431 319.64098,129.579632 C317.590605,134.702627 312.279824,137.849499 309.775882,142.767263 C305.84755,150.478965 309.848888,159.692583 313.811392,167.387182 C314.862986,169.43327 315.972052,171.546214 317.784769,172.961063 C319.929896,174.634005 322.780228,175.103548 325.500081,175.101993 C339.658539,175.094219 351.275775,164.314939 360.761865,153.793753 C377.691435,135.016692 393.213703,114.555807 413.604058,99.6174942 C423.919617,92.0581608 437.829545,85.9587646 449.098839,92.0037436 C455.896141,95.6496993 460.487738,103.223026 467.982478,105.043671 C476.488427,107.108417 487.630349,100.272056 495.224501,105.780636 C498.177352,107.923121 500.289859,111.390277 503.356101,113.706897 C507.164827,116.586347 510.794922,119.51866 513.443323,123.565748 C542.462337,167.898704 547.616233,228.253653 523.797715,276.217016 C499.980749,324.178825 458.558522,310.13762 417.804219,275.114678 C377.048363,240.090182 365.359674,181.610296 283.552833,217.887944 C201.744438,254.165592 189.317925,280.079086 102.17079,235.514469 C89.3388617,228.953303 77.0645735,221.044145 66.509804,211.180629 C63.0459135,207.945135 56.5484006,202.969844 54.9547003,198.384802 C54.0801844,195.866061 55.2669164,192.618128 54.142317,189.72935 C52.822,186.343042 50.210879,183.360977 47.456853,181.05835 C33.9523401,169.762883 13.1006513,166.984494 4.38500576,151.680809 C0.805792555,145.395184 0.0126671189,138.089298 7.23584657e-17,130.756537 L7.77476066e-17,130.394372"/>
    <radialGradient id="home-bg-h" cx="3.876%" cy="82.793%" r="188.394%" fx="3.876%" fy="82.793%" gradientTransform="matrix(.56438 -.13349 .07602 .99105 -.046 .013)">
      <stop offset="0%" stop-color="#3023AE"/>
      <stop offset="54.964%" stop-color="#E52ADF"/>
      <stop offset="100%" stop-color="#F59223"/>
    </radialGradient>
    <path id="home-bg-j" d="M88.4473333,0.93529703 C86.73,1.51044554 85.0188889,2.45866337 84.1524444,4.04731683 C83.4742222,5.29709901 83.4057778,6.77694059 83.3497778,8.19771287 C82.8737778,20.7468317 85.1215556,29.1471089 77.5553333,40.0500594 C71.4871111,48.7938713 64.3642222,49.7389802 54.2328889,52.4670495 C51.4982222,53.2023069 48.7495556,54.0976733 46.4442222,55.7422871 C44.1388889,57.3853465 42.308,59.8973465 42.0933333,62.7186832 C41.3808889,72.0096634 54.1271111,81.0752475 59.6197778,86.8376139 C62.1771111,89.520604 64.1324444,93.2015545 63.406,96.8374257 C62.7168889,100.297644 59.7162222,102.915347 56.434,104.21798 C53.1533333,105.520614 49.5662222,105.753782 46.0568889,106.147059 C35.5475556,107.320673 25.2124444,110.044079 15.4902222,114.202248 C8.29422222,117.280069 0.544444444,122.464178 0.132222222,130.275317 C-0.211555556,136.738743 4.73355556,142.238406 9.89644444,146.146307 C17.3164444,151.759446 24.8608889,151.840277 33.5082222,153.60303 C43.6613333,155.670455 54.2982222,156.547168 64.6053333,155.233653 C80.8951111,153.153792 97.2004444,144.34003 104.133556,129.462337 C107.070444,123.168347 106.96,115.915257 109.070889,109.221772 C111.516222,101.466594 114.425111,93.8062376 118.730889,86.868703 C120.858889,83.4411287 123.341556,80.1394653 124.488,76.2719802 C128.303778,63.3917624 122.675778,47.5036733 118.954889,35.249901 C115.638444,24.3236337 113.958444,13.0398416 105.113556,4.63023762 C102.041333,1.70941584 97.7915556,0.11609901 93.5588889,0.11609901 C91.8244444,0.11609901 90.0931111,0.383465347 88.4473333,0.93529703"/>
    <radialGradient id="home-bg-k" cx="3.876%" cy="82.793%" r="110.8%" fx="3.876%" fy="82.793%" gradientTransform="scale(1 .80677) rotate(-16.34 .73 .927)">
      <stop offset="0%" stop-color="#3023AE"/>
      <stop offset="54.964%" stop-color="#E52ADF"/>
      <stop offset="100%" stop-color="#F59223"/>
    </radialGradient>
    <polygon id="home-bg-m" points=".692 .288 382.901 .288 382.901 343.441 .692 343.441"/>
  </defs>
  <g fill="none" fill-rule="evenodd" transform="translate(-547 -78)">
    <g transform="translate(475 605)">
      <mask id="home-bg-c" fill="#fff">
        <use xlink:href="#home-bg-a"/>
      </mask>
      <path fill="url(#home-bg-b)" d="M182.996717,84.3666808 C194.546359,51.5121243 207.235165,18.8535351 248.787017,4.68383221 C290.337288,-9.48429031 347.91486,5.9418161 367.378614,86.3168719 C380.362876,139.937645 453.204619,168.303917 439.226551,214.773462 C420.183071,278.088297 353.258347,299.371298 306.513107,276.245572 C236.801301,241.756901 190.247238,258.72862 166.874618,302.23653 C143.501998,345.74444 154.565006,387.619816 87.4111853,382.58788 C20.2573643,377.555945 -10.041881,314.193699 2.94396124,255.392435 C15.9282235,196.59117 78.2552106,176.67678 115.477921,157.626858 C152.699052,138.578516 175.529739,105.611753 182.996717,84.3666808" mask="url(#home-bg-c)"/>
    </g>
    <g transform="translate(943)">
      <g transform="translate(41.94 375.256)">
        <mask id="home-bg-f" fill="#fff">
          <use xlink:href="#home-bg-d"/>
        </mask>
        <path fill="url(#home-bg-e)" d="M288.928853,79.1040233 C293.307646,94.1340676 293.605882,110.011466 292.111594,125.497061 C291.463862,132.204375 291.32251,140.803855 288.900893,147.125585 C286.819452,152.56731 282.793262,155.964501 281.732349,162.219375 C278.526308,181.117709 288.722262,199.305508 295.347147,217.294296 C301.972032,235.279974 303.685337,258.805329 288.472179,270.45373 C277.891003,278.555681 263.26189,277.591718 249.937562,277.489103 C230.873738,277.342953 211.890686,279.737312 192.97598,282.128562 C174.252331,284.494935 155.528683,286.862862 136.805035,289.227681 C126.36055,290.549242 115.614723,291.853702 105.421876,289.215242 C79.9242248,282.612098 66.5812565,254.534352 44.3144986,240.457387 C35.8396167,235.10273 26.1049971,231.822147 18.133389,225.742963 C6.75691643,217.067298 -0.116498559,202.772664 0.209697406,188.459373 C0.622878963,170.385072 10.8281527,157.388678 25.1186427,147.427212 C32.1458357,142.531214 39.9791988,138.748438 46.8914467,133.714065 C53.6514697,128.790082 56.9895418,119.81279 63.8551902,113.870427 C68.5275591,109.824893 73.2014813,105.777804 77.8754035,101.733825 C81.5008386,98.5962821 85.458683,93.6645245 82.922121,89.595669 C81.4775389,87.279049 78.1379135,85.9201725 78.179853,83.1899814 C78.2047061,81.7269347 79.2811527,80.5002145 80.4259452,79.590669 C87.7203084,73.7851259 98.9150432,75.5513543 106.442403,70.0521026 C107.434971,69.326021 108.380939,68.4289138 108.758395,67.2581655 C110.122205,63.0384965 103.888755,60.4482354 102.259329,56.3249627 C101.210841,53.67562 102.293501,50.5645082 104.200971,48.4500093 C106.109994,46.3370653 108.714902,45.0123939 111.259231,43.734366 C124.349009,37.1545431 136.609317,31.0971259 148.249853,22.3483869 C158.657058,14.526296 170.205948,8.14237529 182.738086,4.47465268 C246.472118,-14.18269 274.431772,29.3511096 288.928853,79.1040233" mask="url(#home-bg-f)"/>
      </g>
      <mask id="home-bg-i" fill="#fff">
        <use xlink:href="#home-bg-g"/>
      </mask>
      <path fill="url(#home-bg-h)" d="M19.8917406,64.8635291 C12.3814669,70.790345 7.28348991,79.6681305 4.47354467,88.9159534 C1.13236599,99.9160117 0.647731988,111.551974 0.189504323,123.040233 C-0.200377522,132.815126 -0.455121037,143.180834 4.38500576,151.680809 C13.1006513,166.984494 33.9523401,169.762883 47.456853,181.05835 C50.210879,183.360977 52.822,186.343042 54.142317,189.72935 C55.2669164,192.618128 54.0801844,195.866061 54.9547003,198.384802 C56.5484006,202.969844 63.0459135,207.945135 66.509804,211.180629 C77.0645735,221.044145 89.3388617,228.953303 102.17079,235.514469 C189.317925,280.079086 201.744438,254.165592 283.552833,217.887944 C365.359674,181.610296 377.048363,240.090182 417.804219,275.114678 C458.558522,310.13762 499.980749,324.178825 523.797715,276.217016 C547.616233,228.253653 542.462337,167.898704 513.443323,123.565748 C510.794922,119.51866 507.164827,116.586347 503.356101,113.706897 C500.289859,111.390277 498.177352,107.923121 495.224501,105.780636 C487.630349,100.272056 476.488427,107.108417 467.982478,105.043671 C460.487738,103.223026 455.896141,95.6496993 449.098839,92.0037436 C437.829545,85.9587646 423.919617,92.0581608 413.604058,99.6174942 C393.213703,114.555807 377.691435,135.016692 360.761865,153.793753 C351.275775,164.314939 339.658539,175.094219 325.500081,175.101993 C322.780228,175.103548 319.929896,174.634005 317.784769,172.961063 C315.972052,171.546214 314.862986,169.43327 313.811392,167.387182 C309.848888,159.692583 305.84755,150.478965 309.775882,142.767263 C312.279824,137.849499 317.590605,134.702627 319.64098,129.579632 C321.970951,123.755431 319.39245,117.071438 315.707988,111.996641 C312.023527,106.920289 307.217573,102.643093 304.219677,97.132958 C299.584588,88.6174359 299.770986,78.0978042 295.058231,69.6258159 C290.910882,62.1659883 283.051112,56.3511166 282.167277,47.8589161 C281.747882,43.8444779 283.013833,39.8751282 283.860389,35.9275455 C286.300646,24.5527855 284.377643,10.9344802 274.838741,4.28935664 C264.62104,-2.82531002 250.824504,0.912377622 238.640308,3.46687879 C187.040767,14.2803636 132.830104,-1.72297203 80.988245,7.8669021 C70.0202939,9.89588811 56.8870231,16.082352 57.3188444,27.2378881 C57.6357205,35.4020303 65.3696715,44.3824312 60.0076311,50.5424639 C58.1622939,52.6631818 55.2700231,53.4918788 52.5284236,54.1029068 C43.0019481,56.228289 32.9395793,57.0663147 24.4212046,61.831711 C22.8243977,62.7241538 21.3145764,63.740979 19.8917406,64.8635291" mask="url(#home-bg-i)"/>
      <g transform="translate(485 350)">
        <mask id="home-bg-l" fill="#fff">
          <use xlink:href="#home-bg-j"/>
        </mask>
        <path fill="url(#home-bg-k)" d="M88.4473333,0.93529703 C86.73,1.51044554 85.0188889,2.45866337 84.1524444,4.04731683 C83.4742222,5.29709901 83.4057778,6.77694059 83.3497778,8.19771287 C82.8737778,20.7468317 85.1215556,29.1471089 77.5553333,40.0500594 C71.4871111,48.7938713 64.3642222,49.7389802 54.2328889,52.4670495 C51.4982222,53.2023069 48.7495556,54.0976733 46.4442222,55.7422871 C44.1388889,57.3853465 42.308,59.8973465 42.0933333,62.7186832 C41.3808889,72.0096634 54.1271111,81.0752475 59.6197778,86.8376139 C62.1771111,89.520604 64.1324444,93.2015545 63.406,96.8374257 C62.7168889,100.297644 59.7162222,102.915347 56.434,104.21798 C53.1533333,105.520614 49.5662222,105.753782 46.0568889,106.147059 C35.5475556,107.320673 25.2124444,110.044079 15.4902222,114.202248 C8.29422222,117.280069 0.544444444,122.464178 0.132222222,130.275317 C-0.211555556,136.738743 4.73355556,142.238406 9.89644444,146.146307 C17.3164444,151.759446 24.8608889,151.840277 33.5082222,153.60303 C43.6613333,155.670455 54.2982222,156.547168 64.6053333,155.233653 C80.8951111,153.153792 97.2004444,144.34003 104.133556,129.462337 C107.070444,123.168347 106.96,115.915257 109.070889,109.221772 C111.516222,101.466594 114.425111,93.8062376 118.730889,86.868703 C120.858889,83.4411287 123.341556,80.1394653 124.488,76.2719802 C128.303778,63.3917624 122.675778,47.5036733 118.954889,35.249901 C115.638444,24.3236337 113.958444,13.0398416 105.113556,4.63023762 C102.041333,1.70941584 97.7915556,0.11609901 93.5588889,0.11609901 C91.8244444,0.11609901 90.0931111,0.383465347 88.4473333,0.93529703" mask="url(#home-bg-l)"/>
      </g>
    </g>
    <g transform="translate(0 26)">
      <path fill="#245AA6" d="M324.516397,656.902704 C343.593624,701.378883 258.379445,686.681838 291.959984,743.571765 C325.540523,800.461692 390.996008,802.302192 423.956682,716.853714 C435.641724,686.558624 445.043659,653.383422 466.569546,628.255594 C477.646273,615.318189 491.294864,608.556855 507.684724,605.511174 C536.787601,600.109037 571.16511,579.078054 583.693323,559.941476 C606.285687,525.449431 566.394841,523.389457 585.044707,508.064793 C593.287763,501.288057 716.036529,487.203228 711.897676,423.929307 C709.722372,390.715601 670.462941,407.811457 660.229385,395.663388 C656.802799,391.593496 655.151108,385.6446 657.260961,380.750719 C666.01223,360.470567 694.672346,327.599548 645.333363,268.561087 C590.80445,203.304201 470.200187,359.419403 484.965306,255.007615 C491.722225,207.25473 464.401942,119.884893 403.48957,170.04814 C376.796853,192.030177 381.043509,223.149256 366.185988,250.159939 C346.950908,285.137137 309.989984,302.248395 297.234615,343.894517 C290.265941,366.658189 290.439196,390.911972 290.674052,414.719107 C290.916608,439.130758 291.209215,461.948335 296.19894,484.665802 C300.21074,502.939886 307.256416,514.464188 298.516698,533.673924 C281.041111,572.108797 180.16089,563.826548 217.048662,630.319418 C248.280642,686.624081 303.306217,607.459485 324.516397,656.902704"/>
      <path fill="#2656A6" d="M1449.07377,844.098393 C1426.21101,838.048589 1402.51604,835.16828 1378.87115,835.55772 C1381.95343,824.090468 1395.12629,818.688444 1406.89287,817.119119 C1418.65559,815.545939 1431.36226,815.892964 1441.26792,809.345757 C1443.88785,807.614488 1446.37293,805.158321 1446.7351,802.035095 C1447.33614,796.802728 1442.0539,793.008587 1437.44975,790.45988 C1429.16229,785.85987 1420.65907,781.190454 1411.29667,779.721381 C1404.25367,778.618613 1397.07583,779.385924 1389.95193,779.702102 C1379.14085,780.180226 1357.06793,780.519539 1353.46937,767.0781 C1350.78394,757.060642 1363.00515,742.67838 1368.4261,735.437123 C1384.1534,714.434393 1405.5829,697.676936 1429.92515,687.844558 C1432.93037,686.633826 1436.10511,685.430806 1438.1972,682.95536 C1441.29489,679.296174 1441.14463,673.844024 1439.7499,669.251725 C1433.93211,650.161489 1411.29281,641.192818 1391.36207,641.840598 C1389.31235,635.085176 1397.69614,630.037889 1404.60428,628.607374 C1411.51242,627.17686 1420.21985,625.048439 1421.39111,618.092514 C1421.83804,615.470546 1420.95959,612.798453 1419.76906,610.423259 C1411.0077,593.018022 1388.24897,589.19689 1368.80753,588.017005 C1351.79339,586.983641 1334.75227,586.335861 1317.7073,586.081376 C1287.58964,585.626388 1256.26604,586.659751 1229.38092,600.266991 C1221.9642,604.022574 1214.02349,610.885959 1215.869,619.002491 C1217.44096,625.935281 1225.29691,629.266722 1232.27055,630.627831 C1264.17207,636.843436 1297.45677,624.257993 1329.40067,630.242248 C1334.09729,631.125234 1339.11369,632.667568 1341.82609,636.604375 C1346.60361,643.541021 1341.4986,652.929978 1335.86189,659.191853 C1322.43859,674.117788 1305.05842,685.708426 1286.06392,692.224786 C1271.92399,697.079282 1252.03562,697.283641 1245.99822,714.179908 C1240.83542,728.631575 1255.89617,732.510544 1260.93569,742.601263 C1267.68201,756.115963 1257.74939,767.463684 1245.23921,772.426143 C1235.5994,776.247274 1224.72669,777.862869 1216.79754,784.552742 C1214.75939,786.272444 1212.91388,788.400865 1212.26275,790.991985 C1210.67152,797.338689 1216.59719,802.964351 1222.2339,806.28808 C1230.21698,810.99991 1238.95138,814.431603 1248.00555,816.413502 C1252.07415,817.308055 1256.3431,817.963547 1259.80295,820.273192 C1263.26666,822.586693 1265.65542,827.190559 1263.94861,830.992412 C1261.81028,835.762079 1255.38374,836.193932 1250.16314,836.409859 C1243.20491,836.691335 1236.01551,837.971472 1230.34798,842.023954 C1224.68431,846.076436 1220.96246,853.456503 1222.88888,860.150232 C1225.68604,869.859223 1237.51427,873.078844 1247.41992,875.014473 C1275.03709,880.40493 1302.19576,888.166725 1328.4914,898.184182 C1333.90079,900.25091 1340.25027,903.802133 1340.00369,909.593596 C1339.75326,915.720517 1332.40974,918.608537 1326.36078,919.599487 C1303.70993,923.301088 1279.05175,921.897564 1259.74901,934.321063 C1256.12349,936.657698 1252.61355,939.684528 1251.35367,943.810271 C1249.63145,949.412799 1252.67905,955.63226 1257.31016,959.222041 C1261.93357,962.819535 1267.82842,964.300175 1273.58456,965.364386 C1284.50737,967.392555 1295.64208,968.252406 1306.74597,967.936227 C1314.80226,967.708733 1323.15907,966.756342 1330.02869,962.526492 C1333.78906,960.205279 1336.95224,956.985657 1340.79738,954.810967 C1344.48455,952.72496 1348.65332,951.672318 1352.79898,950.843313 C1363.99148,948.599218 1375.4691,947.785637 1386.8658,948.437273 C1426.5963,950.704503 1466.56952,970.457943 1504.67798,958.975268 C1508.8429,957.722122 1513.54722,955.296802 1513.97103,950.9667 C1514.19064,948.707181 1513.12726,946.53249 1511.94829,944.593006 C1503.89585,931.3058 1489.6519,922.765127 1474.83002,918.118846 C1460.00814,913.46871 1444.37716,912.234843 1428.95809,910.345484 C1418.24334,909.034501 1402.69712,906.994764 1402.51989,894.208817 C1402.36578,883.042321 1416.64441,870.025024 1425.60226,865.706489 C1430.83442,863.188629 1436.60213,861.754259 1441.47597,858.59633 C1446.34981,855.438402 1450.31824,849.778037 1449.07377,844.098393"/>
      <g transform="translate(791)">
        <mask id="home-bg-n" fill="#fff">
          <use xlink:href="#home-bg-m"/>
        </mask>
        <path fill="#2656A6" d="M155.83488,1.19263542 C141.5424,-2.74262123 81.12,5.37671665 94.49088,41.0160545 C99.83616,55.2641335 115.7184,54.7243756 124.1088,62.1202081 C138.11712,74.465736 133.82016,93.3572647 123.33696,108.003463 C116.736,117.229113 108.87552,125.539855 99.68256,127.618497 C93.08544,129.111445 86.37312,127.266315 79.71456,126.473904 C51.57504,123.116686 26.72256,138.356235 8.60928,168.08886 C4.17408,175.373679 0.33792,184.289255 0.71808,193.867088 C1.21344,206.300662 8.83584,216.234505 17.16096,220.495148 C25.48608,224.751962 34.55616,224.663917 43.392,225.571169 C52.32768,226.493734 63.56352,231.994672 63.65184,244.589024 C63.75168,257.757587 50.88384,265.716146 51.10272,278.877053 C51.19104,284.431584 53.72928,289.365967 56.72832,292.987322 C70.26432,309.294903 90.99648,303.663811 107.42784,293.925199 C122.17344,285.185714 141.86112,269.027427 158.61504,271.833403 C176.0832,274.761877 191.51616,298.920831 205.04832,313.390938 C217.66272,326.873403 231.1488,340.857345 246.912,343.115907 C266.14272,345.86829 284.09472,330.655537 300.38784,316.043791 C306.86208,310.23278 314.2464,301.466498 312.38784,290.996725 C310.17216,278.544011 295.80288,272.759796 297.84192,260.249661 C299.136,252.306415 306.16704,249.929183 311.8656,248.378814 C317.55648,246.832274 324.48384,242.054842 323.80416,233.9623 C322.848,222.589102 307.67232,219.767814 309.39264,208.574536 C310.26816,202.897507 315.1488,200.784412 319.23072,199.854191 C352.61184,192.251642 391.28448,170.546482 381.30048,110.373039 C377.97504,90.3254327 366.73536,74.2207395 353.7024,64.8343102 C340.66944,55.4402248 325.92384,51.929884 311.36256,49.7172591 C281.63712,45.2001358 251.23584,45.5102095 222.55104,33.6393624 C199.9488,24.2873857 178.95552,7.55871693 155.83488,1.19263542" mask="url(#home-bg-n)"/>
      </g>
    </g>
  </g>
</svg>
