<?xml version="1.0" encoding="UTF-8"?>
<svg width="16px" height="16px" viewBox="0 0 16 16" version="1.1" xmlns="http://www.w3.org/2000/svg" xmlns:xlink="http://www.w3.org/1999/xlink">
    <!-- Generator: Sketch 52.5 (67469) - http://www.bohemiancoding.com/sketch -->
    <title>safari-pinned-tab</title>
    <desc>Created with Sketch.</desc>
    <defs>
        <rect id="path-1" x="0" y="0" width="16" height="16"></rect>
        <path d="M0,18.552641 C0.00159268504,17.9733799 0.0657601501,17.3869402 0.19392673,16.8072367 C1.04936949,12.9375576 5.15566131,11.6270024 7.6080069,10.3733375 C10.0602484,9.11977652 11.5644037,6.9502518 12.0563509,5.55212521 C12.8172765,3.38998478 13.6532537,1.24074085 16.3908163,0.308240441 C19.1282748,-0.624155968 22.9216607,0.391027674 24.2039921,5.68046622 C25.0594348,9.20922001 29.8584708,11.0759889 28.9375531,14.1341243 C27.6829106,18.300839 23.2737059,19.7014617 20.193987,18.1795703 C15.6011608,15.9098897 12.5340373,17.0267893 10.9941779,19.8900211 C9.45431845,22.7532529 10.1831832,25.5090485 5.75888482,25.1778996 C2.01424857,24.8976218 0.00899666335,21.8674685 1.73112272e-10,18.5968663 L1.73112279e-10,18.5526409" id="path-3"></path>
        <radialGradient cx="3.87638764%" cy="82.7931894%" fx="3.87638764%" fy="82.7931894%" r="125.116983%" gradientTransform="translate(0.038764,0.827932),scale(0.867512,1.000000),rotate(-11.595456),translate(-0.038764,-0.827932)" id="radialGradient-5">
            <stop stop-color="#3023AE" offset="0%"></stop>
            <stop stop-color="#E52ADF" offset="54.9641082%"></stop>
            <stop stop-color="#F59223" offset="100%"></stop>
        </radialGradient>
    </defs>
    <g id="safari-pinned-tab" stroke="none" stroke-width="1" fill="none" fill-rule="evenodd">
        <g id="ico">
            <g id="Logo" transform="translate(-0.066390, -0.066390)">
                <g id="Group">
                    <mask id="mask-2" fill="white">
                        <use xlink:href="#path-1"></use>
                    </mask>
                    <use id="Rectangle" fill="#171618" fill-rule="nonzero" xlink:href="#path-1"></use>
                    <g id="Group-3" mask="url(#mask-2)">
                        <g transform="translate(-4.284519, -4.619247)">
                            <mask id="mask-4" fill="white">
                                <use xlink:href="#path-3"></use>
                            </mask>
                            <g id="Clip-2" stroke="none" fill="none"></g>
                            <path d="M12.0563687,5.55212521 C12.8172935,3.38998478 13.6532699,1.24074085 16.3908296,0.308240441 C19.1282852,-0.624155968 22.9216671,0.391027674 24.2039971,5.68046622 C25.059439,9.20922001 29.85847,11.0759889 28.9375532,14.1341243 C27.682912,18.300839 23.2737119,19.7014617 20.1939963,18.1795703 C15.6011749,15.9098897 12.5340546,17.0267893 10.9941968,19.8900211 C9.45433896,22.7532529 10.1832029,25.5090485 5.7589092,25.1778996 C1.33461549,24.8467506 -0.661589028,20.6769158 0.193956934,16.8072367 C1.0493988,12.9375576 5.15568632,11.6270024 7.60802934,10.3733375 C10.0602683,9.11977652 11.564422,6.9502518 12.0563687,5.55212521" id="Fill-1" stroke="none" fill="url(#radialGradient-5)" fill-rule="evenodd" mask="url(#mask-4)"></path>
                        </g>
                    </g>
                </g>
            </g>
        </g>
    </g>
</svg>